# xmcd
#
# Track frame offsets: 
#        150
#        12957
#        25212
#        36387
#        51564
#        64589
#        76597
#        88202
#        99747
#        112782
#        126717
#        139207
#        164455
#        182200
#        190978
#        202673
#        214536
#        229172
#        237421
#        247429
#
# Disc length: 3456 seconds
#
# Revision: 0
# Processed by: cddbd v1.5.2PL0 Copyright (c) Steve Scherf et al.
# Submitted via: ExactAudioCopy v0.99pb4
#
DISCID=230d7e14
DTITLE=King Curtis - Soul Twist: The Best of the Early Sixties
DYEAR=1962
DGENRE=Soul
TTITLE0=Soul Twist
TTITLE1=Twisting Time
TTITLE2=What'd I Say, Pt. 1
TTITLE3=What'd I Say, Pt. 2
TTITLE4=I Know (You Don't Love Me No More)
TTITLE5=Sock O' Woe (Twist)
TTITLE6=Camp Meetin' (a.k.a. Harmonica Twist)
TTITLE7=Wobble Twist
TTITLE8=Irresistible You
TTITLE9=Big Dipper (a.k.a. Mr. Crow)
TTITLE10=Twistin' with the King
TTITLE11=Midnight Blue
TTITLE12=Hot Potato (Piping Hot)
TTITLE13=The Monkey Shout (Bobby Davis and The Rhythm Rockers)
TTITLE14=Get with It (Bobby Davis and The Rhythm Rockers)
TTITLE15=Air Raid (Curley Hamner)
TTITLE16=Soul Twist (Take 7)
TTITLE17=I'm Gonna Catch You (Cutting out on Me) [Curtis Carrington]
TTITLE18=Madisonville, U.S.A, Pt. 1 (The Strolls)
TTITLE19=Off to Work Again (Wilbert Harrison)
EXTD=
EXTT0=
EXTT1=
EXTT2=
EXTT3=
EXTT4=
EXTT5=
EXTT6=
EXTT7=
EXTT8=
EXTT9=
EXTT10=
EXTT11=
EXTT12=
EXTT13=
EXTT14=
EXTT15=
EXTT16=
EXTT17=
EXTT18=
EXTT19=
PLAYORDER=
